<svg width="796" height="786" viewBox="0 0 796 786" fill="none" xmlns="http://www.w3.org/2000/svg">
<path d="M354.561 704.976C354.561 704.976 481.921 725.176 581.803 636.798C681.685 548.421 709.163 404.74 734.507 289.025C759.852 173.31 705.979 70.344 606.431 37.3478C506.883 4.35148 463.835 88.2648 341.045 114.769C218.254 141.273 180.905 129.703 94.603 218.961C8.30069 308.219 28.1848 477.461 137.587 585.111C246.989 692.762 354.561 704.976 354.561 704.976Z" fill="#2B44FF" fill-opacity="0.5"/>
<path opacity="0.7" d="M354.561 704.976C354.561 704.976 481.921 725.176 581.803 636.798C681.685 548.421 709.163 404.74 734.507 289.025C759.852 173.31 705.979 70.344 606.431 37.3478C506.883 4.35148 463.835 88.2648 341.045 114.769C218.254 141.273 180.905 129.703 94.603 218.961C8.30069 308.219 28.1848 477.461 137.587 585.111C246.989 692.762 354.561 704.976 354.561 704.976Z" fill="white"/>
<path d="M586.811 239.856C617.47 239.856 642.324 215.314 642.324 185.04C642.324 154.766 617.47 130.225 586.811 130.225C556.152 130.225 531.298 154.766 531.298 185.04C531.298 215.314 556.152 239.856 586.811 239.856Z" stroke="#263238" stroke-linecap="round" stroke-linejoin="round"/>
<path d="M586.811 228.82C611.298 228.82 631.148 209.219 631.148 185.04C631.148 160.861 611.298 141.26 586.811 141.26C562.324 141.26 542.474 160.861 542.474 185.04C542.474 209.219 562.324 228.82 586.811 228.82Z" stroke="#263238" stroke-linecap="round" stroke-linejoin="round"/>
<path d="M586.811 228.82C611.298 228.82 631.148 209.219 631.148 185.04C631.148 160.861 611.298 141.26 586.811 141.26C562.324 141.26 542.474 160.861 542.474 185.04C542.474 209.219 562.324 228.82 586.811 228.82Z" stroke="#263238" stroke-linecap="round" stroke-linejoin="round"/>
<path d="M571.066 174.476L586.811 185.04H625.529" stroke="#263238" stroke-width="2" stroke-linecap="round" stroke-linejoin="round"/>
<path d="M591.11 185.04C591.113 185.88 590.863 186.702 590.393 187.403C589.922 188.103 589.252 188.649 588.467 188.973C587.682 189.296 586.817 189.383 585.982 189.221C585.147 189.059 584.38 188.656 583.777 188.063C583.175 187.47 582.764 186.714 582.597 185.89C582.429 185.066 582.514 184.212 582.838 183.435C583.163 182.659 583.714 181.995 584.421 181.528C585.129 181.061 585.96 180.812 586.811 180.812C587.948 180.812 589.039 181.257 589.845 182.049C590.651 182.842 591.105 183.917 591.11 185.04Z" fill="white" stroke="#263238" stroke-linecap="round" stroke-linejoin="round"/>
<path d="M502.976 639.804C502.976 639.804 509.87 649.236 512.178 655.241C514.487 661.246 511.032 665.318 501.257 669.483C491.482 673.649 485.178 673.036 476.565 674.199C467.952 675.363 463.941 682.5 451.3 684.873C438.66 687.247 428.328 685.471 428.901 681.321C429.474 677.171 445.553 672.407 453.019 663.51C460.486 654.612 474.273 639.175 474.273 639.175L502.976 639.804Z" fill="white" stroke="#263238" stroke-linecap="round" stroke-linejoin="round"/>
<path d="M502.976 639.804L496.608 639.678L493.026 643.482C492.534 644.46 492.093 645.462 491.705 646.485C489.588 651.893 486.324 663.494 492.374 672.297C495.429 671.661 498.411 670.718 501.273 669.483C511.048 665.317 514.487 661.167 512.194 655.241C509.902 649.315 502.976 639.804 502.976 639.804Z" fill="#9E9E9E" stroke="#263238" stroke-linecap="round" stroke-linejoin="round"/>
<path d="M452.924 518.115C452.924 518.115 468.335 554.036 470.197 572.302C472.06 590.569 504.107 633.799 505.954 636.849C507.8 639.898 504.728 644.709 500.413 645.966C496.099 647.224 487.454 653.826 476.358 648.403C465.262 642.98 457.254 621.003 432.578 589.956C407.902 558.909 385.71 532.106 386.952 517.502C388.193 502.898 404.83 502.285 419.635 504.109C434.441 505.932 452.924 518.115 452.924 518.115Z" fill="#4F4F4F" stroke="#263238" stroke-linecap="round" stroke-linejoin="round"/>
<path d="M437.513 653.952C437.513 653.952 422.103 669.782 416.547 672.219C410.991 674.655 386.951 682.563 386.951 686.839C386.951 691.114 409.765 694.133 419.014 694.133C428.264 694.133 446.078 687.436 451.698 685.612C457.318 683.789 475.737 680.739 482.519 675.866C489.301 670.993 478.205 651.516 478.205 651.516L437.513 653.952Z" fill="white" stroke="#263238" stroke-linecap="round" stroke-linejoin="round"/>
<path d="M411.373 693.661C410.762 689.332 409.382 685.144 407.297 681.289C406.47 679.735 405.489 678.266 404.368 676.903C396.09 680.157 387.015 684.15 387.015 686.775C386.951 690.108 400.866 692.686 411.373 693.661Z" fill="#9E9E9E" stroke="#263238" stroke-linecap="round" stroke-linejoin="round"/>
<path d="M467.618 652.081C466.524 654.405 465.732 656.856 465.262 659.376C463.861 667 464.848 675.819 465.962 681.997C472.33 680.425 479.001 678.334 482.519 675.803C489.301 670.945 478.205 651.453 478.205 651.453L467.618 652.081Z" fill="#9E9E9E" stroke="#263238" stroke-linecap="round" stroke-linejoin="round"/>
<path d="M352.405 509.69C352.405 509.69 352.803 522.486 364.743 540.642C376.683 558.799 433.295 636.77 433.295 636.77C433.295 636.77 433.295 650.384 434.218 653.103C435.141 655.823 478.332 663.101 481.102 654.927C483.873 646.753 470.07 629.508 470.07 629.508L428.678 515.145C428.678 515.145 415.815 489.725 397.427 487.006C379.039 484.286 352.405 497.9 352.405 509.69Z" fill="#6B6B6B" stroke="#263238" stroke-linecap="round" stroke-linejoin="round"/>
<path d="M700.974 231.996L655.697 232.53C655.697 232.53 651.367 231.996 650.284 235.203C650.284 235.203 638.901 263.499 638.36 273.717C637.819 283.935 640.541 282.284 636.195 295.646C631.849 309.008 619.399 340.59 612.315 366.26C602.843 400.844 600.391 437.409 599.786 473.031C599.69 478.737 596.22 527.925 605.231 527.925C612.713 527.925 661.412 536.948 662.24 523.822C665.552 471.49 655.984 420.369 674.387 369.467C681.535 349.707 689.734 328.831 695.8 308.159C701.865 287.487 702.932 265.998 706.944 244.839C709.65 230.392 700.974 231.996 700.974 231.996Z" fill="#263238" stroke="#263238" stroke-linecap="round" stroke-linejoin="round"/>
<path d="M700.974 231.996L655.697 232.53C655.697 232.53 651.367 231.996 650.284 235.203C650.284 235.203 640.828 258.783 638.758 270.636C637.328 275.839 636.837 281.251 637.309 286.623C638.328 295.913 641.019 304.214 654.455 307.546C666.109 310.407 680.532 308.049 685.929 300.456C691.517 296.338 690.466 288.934 693.889 281.75C699.302 270.51 701.467 252.322 705.813 241.632C706.281 240.529 706.813 239.453 707.405 238.41C706.753 230.943 700.974 231.996 700.974 231.996Z" fill="#828282" stroke="#263238" stroke-linecap="round" stroke-linejoin="round"/>
<path d="M692.202 259.38C687.808 275.006 690.45 279.344 686.041 306.257C681.631 333.17 665.822 363.556 659.677 391.334C653.532 419.111 656.159 517.219 657.034 521.558C657.373 523.869 657.501 526.205 657.416 528.538C660.362 527.453 662.192 525.944 662.288 523.9C665.599 471.569 656.031 420.447 674.435 369.546C681.583 349.786 689.782 328.91 695.847 308.238C701.913 287.566 702.963 266.077 706.991 244.918C708.583 236.036 706.02 233.238 703.807 232.342V232.436C698.8 240.896 694.9 249.95 692.202 259.38Z" fill="#696969" stroke="#263238" stroke-linecap="round" stroke-linejoin="round"/>
<path d="M554.955 660.067L554.462 659.69V593.336H564.125V551.395H528.401V593.336H538.096V660.837L452.653 687.719V694.4C452.653 696.422 453.467 698.361 454.915 699.791C456.363 701.22 458.327 702.024 460.375 702.024C462.422 702.024 464.386 701.22 465.834 699.791C467.282 698.361 468.096 696.422 468.096 694.4V693.441L539.545 685.235V695.343C539.545 697.115 540.258 698.814 541.526 700.067C542.795 701.32 544.516 702.024 546.311 702.024C548.105 702.024 549.826 701.32 551.095 700.067C552.364 698.814 553.077 697.115 553.077 695.343V684.905L627.407 693.441V694.4C627.497 696.364 628.351 698.218 629.791 699.576C631.23 700.935 633.145 701.693 635.136 701.693C637.128 701.693 639.042 700.935 640.482 699.576C641.921 698.218 642.775 696.364 642.865 694.4V687.719L554.955 660.067Z" fill="#263238" stroke="#263238" stroke-linecap="round" stroke-linejoin="round"/>
<path d="M554.478 659.69V593.697H538.048V659.721H554.494L554.478 659.69Z" fill="white" stroke="#263238" stroke-linecap="round" stroke-linejoin="round"/>
<path d="M660.25 522.407H441.207C437.69 522.407 434.839 525.222 434.839 528.695V552.826C434.839 556.298 437.69 559.114 441.207 559.114H660.25C663.767 559.114 666.618 556.298 666.618 552.826V528.695C666.618 525.222 663.767 522.407 660.25 522.407Z" fill="#263238" stroke="#263238" stroke-linecap="round" stroke-linejoin="round"/>
<path d="M444.948 314.227C444.948 314.227 457.987 318.267 462.46 319.745C466.934 321.222 481.835 335.921 481.835 335.921C481.835 335.921 499.713 291.779 501.209 287.739C502.706 283.699 503.438 281.105 503.438 281.105C501.089 281.899 498.551 281.972 496.159 281.316C493.766 280.659 491.631 279.303 490.033 277.427C483.665 270.808 491.896 257.572 484.446 246.159C476.995 234.747 431.161 259.034 430.047 270.808C428.933 282.583 434.138 307.593 444.948 314.227Z" fill="white" stroke="#263238" stroke-linecap="round" stroke-linejoin="round"/>
<path d="M406.581 246.537C406.581 246.537 407.329 256.456 409.924 260.512C412.519 264.568 415.146 271.909 413.283 275.226C411.421 278.543 404.718 282.221 405.833 285.9C406.947 289.578 415.894 291.04 415.894 291.04L418.123 296.196C418.123 296.196 425.207 292.156 431.543 293.995C437.88 295.835 449.422 293.618 452.032 287C454.643 280.382 455.01 256.095 452.781 239.541C450.552 222.988 443.085 215.254 429.681 218.508C416.276 221.762 405.833 237.372 406.581 246.537Z" fill="white" stroke="#263238" stroke-linecap="round" stroke-linejoin="round"/>
<path d="M417.677 264.945C417.677 264.945 417.757 255.356 424.825 254.255" stroke="#263238" stroke-width="2" stroke-linecap="round" stroke-linejoin="round"/>
<path d="M424.714 267.57C425.526 269.661 425.414 271.642 424.443 272.003C423.472 272.365 422.055 270.981 421.259 268.859C420.463 266.737 420.559 264.788 421.514 264.411C422.469 264.033 423.886 265.495 424.714 267.57Z" fill="#263238"/>
<path d="M436.304 248.376C436.304 248.376 439.663 252.039 434.075 253.517" stroke="#263238" stroke-linecap="round" stroke-linejoin="round"/>
<path d="M440.777 248.376C440.777 248.376 439.663 253.878 444.12 253.878" stroke="#263238" stroke-linecap="round" stroke-linejoin="round"/>
<path d="M434.807 256.488C434.807 256.488 438.532 253.548 438.166 258.327" stroke="#263238" stroke-linecap="round" stroke-linejoin="round"/>
<path d="M444.502 256.865C444.502 256.865 440.777 256.488 440.777 257.965" stroke="#263238" stroke-linecap="round" stroke-linejoin="round"/>
<path d="M450.616 194.708C442.749 196.239 435.095 198.693 427.818 202.018C415.082 207.85 408.061 217.093 396.886 216.732C385.71 216.37 381.984 220.772 387.954 228.129C393.924 235.486 403.97 234.762 403.97 234.762C403.97 234.762 395.023 243.22 396.519 248.738C398.016 254.255 404.336 253.155 408.81 247.26C413.283 241.365 417.008 233.285 427.436 231.084C437.864 228.883 441.223 228.867 441.223 228.867C441.223 228.867 429.299 238.064 430.795 241.742C432.292 245.421 442.337 245.059 446.811 249.476C451.284 253.894 447.559 284.06 443.834 288.1C440.108 292.14 434.887 290.679 428.55 290.301C422.214 289.924 416.642 291.417 418.123 296.196C419.603 300.975 425.223 324.571 429.697 326.064C434.17 327.558 451.428 327.165 469.258 304.056C474.273 297.548 465.437 273.402 465.437 268.246C465.437 263.09 464.991 257.698 466.249 252.683C466.997 249.744 469.624 246.851 472.888 246.82C477.393 246.82 478.778 251.064 479.606 254.68C481.469 262.776 475.499 269.771 476.613 270.871C477.727 271.972 485.194 278.606 491.514 280.806C497.834 283.007 498.981 266.831 501.958 254.318C504.935 241.805 504.935 217.533 490.034 202.442C480.45 192.68 465.007 191.941 450.616 194.708Z" fill="#263238" stroke="#263238" stroke-linecap="round" stroke-linejoin="round"/>
<path d="M432.706 300.048C433.709 302.594 433.104 305.204 431.368 305.864C429.633 306.524 427.404 305.015 426.401 302.468C425.398 299.922 426.003 297.328 427.755 296.668C429.506 296.007 431.719 297.517 432.706 300.048Z" fill="white"/>
<path d="M485.574 277.074C493.501 269.247 493.501 256.556 485.574 248.729C477.647 240.902 464.795 240.902 456.868 248.729C448.941 256.556 448.941 269.247 456.868 277.074C464.795 284.901 477.647 284.901 485.574 277.074Z" fill="white" stroke="#263238" stroke-linecap="round" stroke-linejoin="round"/>
<path d="M466.567 253.894L458.607 193.089C458.565 192.773 458.59 192.452 458.681 192.147C458.772 191.841 458.926 191.558 459.135 191.315C459.343 191.072 459.601 190.875 459.891 190.737C460.182 190.598 460.498 190.521 460.82 190.511L472.983 189.976C473.299 189.966 473.614 190.018 473.909 190.13C474.204 190.242 474.474 190.412 474.701 190.629C474.928 190.846 475.109 191.106 475.232 191.394C475.356 191.681 475.419 191.99 475.419 192.303L474.687 253.516L466.567 253.894Z" fill="#92E3A9" stroke="#263238" stroke-linecap="round" stroke-linejoin="round"/>
<path d="M471.216 275.226C478.109 275.226 483.697 269.708 483.697 262.901C483.697 256.095 478.109 250.577 471.216 250.577C464.323 250.577 458.735 256.095 458.735 262.901C458.735 269.708 464.323 275.226 471.216 275.226Z" fill="#92E3A9" stroke="#263238" stroke-linecap="round" stroke-linejoin="round"/>
<path d="M323.956 425.635H337.281C340.941 425.635 344.452 427.071 347.041 429.627C349.629 432.183 351.083 435.649 351.083 439.264V443.603H310.169V439.264C310.169 435.652 311.621 432.188 314.206 429.632C316.791 427.077 320.298 425.639 323.956 425.635Z" fill="#263238" stroke="#263238" stroke-linecap="round" stroke-linejoin="round"/>
<path d="M454.117 394.368C454.117 394.368 375.823 417.319 370.267 417.319C364.711 417.319 349.045 417.806 338.952 415.747C328.859 413.688 321.265 412.257 317.221 416.25C313.178 420.243 310.153 433.715 310.153 433.715C312.23 433.929 314.326 433.581 316.218 432.709C320.262 431.215 322.777 422.239 322.777 422.239C322.777 422.239 333.396 421.233 337.933 425.729C342.47 430.225 341.977 430.712 338.952 433.715C335.927 436.717 326.821 437.205 324.799 440.694C322.777 444.184 329.846 443.194 332.887 442.691C335.927 442.188 344.031 441.685 349.045 439.201C354.759 436.469 360.671 434.163 366.733 432.3C369.248 431.813 418.759 429.816 434.424 429.816C450.09 429.816 470.292 425.823 480.385 422.837C486.103 421.255 491.434 418.537 496.051 414.851C496.051 414.851 460.692 394.368 454.117 394.368Z" fill="white" stroke="#263238" stroke-linecap="round" stroke-linejoin="round"/>
<path d="M311.491 412.65C311.491 412.65 318.973 406.896 326.456 406.896" stroke="#263238" stroke-linecap="round" stroke-linejoin="round"/>
<path d="M309.835 407.73C314.229 403.892 319.777 401.584 325.628 401.159" stroke="#263238" stroke-linecap="round" stroke-linejoin="round"/>
<path d="M492.517 343.985L472.824 383.898C472.824 383.898 467.777 382.892 466.758 385.895C466.033 387.828 464.816 389.544 463.224 390.878L454.134 394.368C454.134 394.368 462.731 400.844 473.843 410.324C484.955 419.803 493.026 421.328 493.026 421.328C493.026 421.328 513.245 402.872 516.27 382.421C519.294 361.969 501.098 335.009 492.517 343.985Z" fill="#92E3A9" stroke="#263238" stroke-linecap="round" stroke-linejoin="round"/>
<path d="M355.159 517.864C347.804 504.251 349.651 484.286 401.12 475.2C452.59 466.114 486.834 467.576 486.834 467.576L496.083 456.006C496.083 456.006 607.953 468.849 609.784 471.569C611.615 474.288 608.781 495.149 607.03 506.058C605.278 516.968 603.607 526.353 589.82 530.896C576.033 535.439 514.184 534.197 482.01 530.566C449.836 526.935 399.226 516.056 399.226 516.056" fill="#6B6B6B"/>
<path d="M355.159 517.864C347.804 504.251 349.651 484.286 401.12 475.2C452.59 466.114 486.834 467.576 486.834 467.576L496.083 456.006C496.083 456.006 607.953 468.849 609.784 471.569C611.615 474.288 608.781 495.149 607.03 506.058C605.278 516.968 603.607 526.353 589.82 530.896C576.033 535.439 514.184 534.197 482.01 530.566C449.836 526.935 399.226 516.056 399.226 516.056" stroke="#263238" stroke-linecap="round" stroke-linejoin="round"/>
<path d="M386.442 534.559C388.378 536.933 390.468 539.18 392.699 541.287" stroke="#263238" stroke-linecap="round" stroke-linejoin="round"/>
<path d="M532.062 504.612C495.319 503.999 422.055 504.612 407.552 504.612C388.448 504.612 375.712 502.521 376.779 515.097C377.202 518.714 378.355 522.209 380.17 525.378" stroke="#263238" stroke-linecap="round" stroke-linejoin="round"/>
<path d="M593.291 481.551C593.291 481.551 589.04 487.839 590.107 490.983C591.173 494.127 602.843 497.271 595.408 501.468C587.973 505.665 577.371 501.468 577.371 506.703C577.371 511.937 582.672 517.188 575.237 517.188C567.803 517.188 558.267 507.756 552.949 505.665C549.673 505.121 546.354 504.863 543.031 504.895" stroke="#263238" stroke-linecap="round" stroke-linejoin="round"/>
<path d="M494.857 469.399C494.857 469.399 539.258 479.146 560.225 496.799" stroke="#263238" stroke-linecap="round" stroke-linejoin="round"/>
<path d="M505.953 470.61C505.953 470.61 562.072 479.743 584.885 501.672" stroke="#263238" stroke-linecap="round" stroke-linejoin="round"/>
<path d="M500.302 279.596C500.302 279.596 482.105 322.04 477.059 345.447C472.012 368.854 481.612 379.858 485.64 391.334C489.667 402.809 502.817 432.206 502.817 432.206C502.817 432.206 492.724 445.175 491.673 453.16C490.623 461.146 493.186 460.14 528.05 470.107C551.834 476.834 576.567 479.701 601.282 478.595C608.351 478.092 612.426 472.606 613.907 468.613C615.388 464.62 615.929 424.723 610.373 394.289C604.817 363.855 583.595 319.478 553.284 298.523C522.972 277.568 504.839 276.106 500.302 279.596Z" fill="white" stroke="#263238" stroke-linecap="round" stroke-linejoin="round"/>
<path d="M500.302 279.596C500.302 279.596 482.105 322.04 477.059 345.447C474.018 359.595 476.31 369.184 479.479 377.107L513.022 278.904C506.479 277.568 502.196 278.15 500.302 279.596Z" fill="#92E3A9" stroke="#263238" stroke-linecap="round" stroke-linejoin="round"/>
<path d="M583.85 366.716C585.775 366.973 587.719 367.073 589.661 367.015" stroke="#263238" stroke-linecap="round" stroke-linejoin="round"/>
<path d="M544.464 344.724C544.464 344.724 558.792 359.359 575.986 364.924" stroke="#263238" stroke-linecap="round" stroke-linejoin="round"/>
<path d="M551.278 366.276C551.278 366.276 567.835 387.813 590.409 391.538" stroke="#263238" stroke-linecap="round" stroke-linejoin="round"/>
<path d="M539.242 338.782C548.815 342.462 559.225 343.49 569.347 341.753" stroke="#263238" stroke-linecap="round" stroke-linejoin="round"/>
<path d="M568.185 439.704C571.013 442.033 573.672 444.555 576.145 447.25" stroke="#263238" stroke-linecap="round" stroke-linejoin="round"/>
<path d="M527.207 420.51C540.227 423.088 552.545 428.366 563.345 435.994" stroke="#263238" stroke-linecap="round" stroke-linejoin="round"/>
<path d="M501.575 392.811C488.512 397.626 474.951 401.005 461.139 402.888C440.284 405.403 404.288 407.195 402.235 407.101C400.181 407.006 375.967 395.877 375.967 395.877C375.967 395.877 365.284 386.885 360.747 386.665C356.21 386.445 344.525 387.404 343.41 389.353C342.296 391.302 347.311 392.497 347.311 392.497L358.455 393.016C361.48 393.157 368.134 401.96 368.134 401.96C368.134 401.96 357.117 399.948 353.074 399.76C349.03 399.571 340.147 405.639 340.067 407.132C339.988 408.626 342.503 409.239 345.018 409.364C347.534 409.49 354.809 405.827 354.809 405.827L366.749 409.883C366.749 409.883 355.382 414.851 353.679 418.765C351.975 422.679 350.24 427.584 350.24 427.584C350.24 427.584 350.622 430.099 354.729 428.794C358.837 427.49 360.668 421.092 360.668 421.092L372.974 417.665C372.974 417.665 364.632 422.569 364.011 425.037C363.39 427.505 361.607 433.117 363.629 433.212C365.651 433.306 371.047 426.075 371.047 426.075L380.281 423.513L392.89 424.11C395.947 424.165 399.003 423.971 402.028 423.528C427.963 428.148 454.156 431.219 480.466 432.724C519.326 434.564 534.323 427.773 544.814 419.787C555.305 411.801 532.476 392.733 523.895 392.324C515.314 391.915 501.575 392.811 501.575 392.811Z" fill="white" stroke="#263238" stroke-linecap="round" stroke-linejoin="round"/>
<path d="M510.554 301.337C510.554 301.337 497.373 312.215 496.513 330.152C495.653 348.088 504.027 383.93 504.027 383.93L502.722 389.872L496.481 393.566C496.481 393.566 501.576 403.297 520.361 412.163C539.147 421.029 555.608 424.817 558.792 422.962C561.976 421.107 557.28 401.929 557.932 377.987C558.335 357.229 555.412 336.537 549.272 316.679C544.846 303.49 526.443 297.124 520.871 297.36" fill="#92E3A9"/>
<path d="M510.554 301.337C510.554 301.337 497.373 312.215 496.513 330.152C495.653 348.088 504.027 383.93 504.027 383.93L502.722 389.872L496.481 393.566C496.481 393.566 501.576 403.297 520.361 412.163C539.147 421.029 555.608 424.817 558.792 422.962C561.976 421.107 557.28 401.929 557.932 377.987C558.335 357.229 555.412 336.537 549.272 316.679C544.846 303.49 526.443 297.124 520.871 297.36" stroke="#263238" stroke-linecap="round" stroke-linejoin="round"/>
<path d="M502.722 389.856C502.722 389.856 517.766 403.045 529.786 404.601" stroke="#263238" stroke-linecap="round" stroke-linejoin="round"/>
<path d="M368.819 383.112L387.095 392.953" stroke="#263238" stroke-linecap="round" stroke-linejoin="round"/>
<path d="M373.802 379.009L390.406 388.033" stroke="#263238" stroke-linecap="round" stroke-linejoin="round"/>
<path d="M323.59 169.776H420.877C426.065 169.776 430.27 165.624 430.27 160.501V132.646C430.27 127.523 426.065 123.371 420.877 123.371L323.59 123.371C318.402 123.371 314.197 127.523 314.197 132.646V160.501C314.197 165.624 318.402 169.776 323.59 169.776Z" fill="#263238" stroke="#263238" stroke-miterlimit="10"/>
<path d="M341.755 158.725C348.92 158.725 354.729 152.989 354.729 145.913C354.729 138.837 348.92 133.101 341.755 133.101C334.589 133.101 328.78 138.837 328.78 145.913C328.78 152.989 334.589 158.725 341.755 158.725Z" fill="#92E3A9"/>
<path d="M351.1 144.011C351.094 142.911 350.71 141.846 350.01 140.991C349.31 140.136 348.336 139.541 347.249 139.305C346.161 139.069 345.025 139.206 344.026 139.692C343.027 140.179 342.226 140.987 341.755 141.983C341.283 140.987 340.482 140.179 339.483 139.692C338.485 139.206 337.348 139.069 336.26 139.305C335.173 139.541 334.199 140.136 333.499 140.991C332.799 141.846 332.415 142.911 332.41 144.011C332.403 144.849 332.623 145.674 333.046 146.4C335.148 150.77 341.755 155.581 341.755 155.581C341.755 155.581 348.361 150.77 350.463 146.4C350.878 145.67 351.097 144.848 351.1 144.011Z" fill="#263238" stroke="#263238" stroke-miterlimit="10"/>
<path d="M336.788 140.458C336.869 140.711 336.872 140.982 336.796 141.236C336.72 141.49 336.568 141.716 336.36 141.883C336.152 142.051 335.898 142.153 335.63 142.176C335.363 142.199 335.095 142.142 334.86 142.013C334.626 141.883 334.437 141.687 334.317 141.45C334.197 141.213 334.153 140.945 334.189 140.683C334.225 140.42 334.34 140.174 334.52 139.977C334.699 139.78 334.935 139.641 335.196 139.578C335.359 139.533 335.529 139.519 335.698 139.539C335.866 139.558 336.028 139.611 336.176 139.692C336.324 139.774 336.454 139.884 336.559 140.015C336.664 140.147 336.742 140.297 336.788 140.458Z" fill="#92E3A9"/>
<path d="M344.404 141.972C345.121 141.801 345.573 141.128 345.412 140.47C345.252 139.812 344.539 139.417 343.821 139.588C343.103 139.759 342.652 140.431 342.812 141.089C342.973 141.747 343.686 142.143 344.404 141.972Z" fill="#92E3A9"/>
<path d="M402.537 158.725C409.703 158.725 415.512 152.989 415.512 145.913C415.512 138.837 409.703 133.101 402.537 133.101C395.371 133.101 389.562 138.837 389.562 145.913C389.562 152.989 395.371 158.725 402.537 158.725Z" fill="#808080"/>
<path d="M412.551 137.393L410.258 135.208L402.171 143.492L394.068 135.208L391.775 137.393L399.958 145.756L391.775 154.119L394.068 156.304L402.171 148.02L410.258 156.304L412.551 154.119L404.384 145.756L412.551 137.393Z" fill="#263238"/>
<path d="M372.321 158.725C379.487 158.725 385.296 152.989 385.296 145.913C385.296 138.837 379.487 133.101 372.321 133.101C365.155 133.101 359.346 138.837 359.346 145.913C359.346 152.989 365.155 158.725 372.321 158.725Z" fill="#808080"/>
<path d="M382.335 137.393L380.042 135.208L371.955 143.492L363.867 135.208L361.575 137.393L369.742 145.756L361.575 154.119L363.867 156.304L371.955 148.02L380.042 156.304L382.335 154.119L374.168 145.756L382.335 137.393Z" fill="#263238"/>
<path d="M390.39 169.572L397.554 179.79L388.798 181.362L399.942 199.44L380.042 179.004L383.226 175.86L374.47 166.428" fill="#263238"/>
<path d="M209.221 451.462H282.946C284.361 451.462 285.717 450.908 286.717 449.92C287.717 448.932 288.279 447.593 288.279 446.196C288.279 444.8 287.717 443.46 286.717 442.473C285.717 441.485 284.361 440.93 282.946 440.93H209.221C207.275 440.931 205.356 440.486 203.613 439.633C201.871 438.779 200.352 437.538 199.175 436.008C197.999 434.478 197.197 432.7 196.833 430.813C196.468 428.926 196.55 426.982 197.074 425.132L223.23 332.588C223.445 331.914 223.52 331.205 223.451 330.503C223.383 329.8 223.172 329.118 222.831 328.497C222.49 327.877 222.026 327.33 221.467 326.89C220.908 326.45 220.265 326.126 219.576 325.936C218.888 325.746 218.167 325.695 217.458 325.785C216.749 325.876 216.066 326.107 215.449 326.463C214.832 326.82 214.294 327.295 213.866 327.861C213.439 328.427 213.132 329.073 212.962 329.758L186.805 422.302C185.837 425.717 185.682 429.307 186.354 432.79C187.025 436.274 188.505 439.557 190.676 442.381C192.847 445.206 195.651 447.496 198.869 449.071C202.086 450.647 205.629 451.465 209.221 451.462Z" fill="#828282" stroke="#263238" stroke-linecap="round" stroke-linejoin="round"/>
<path d="M244.255 423.958L260.947 421.984L235.096 208.866L218.404 210.84L244.255 423.958Z" fill="white" stroke="#263238" stroke-linecap="round" stroke-linejoin="round"/>
<path d="M246.235 204.879L296.112 183.924" stroke="#263238" stroke-linecap="round" stroke-linejoin="round"/>
<path d="M266.389 419.724L300.363 431.246" stroke="#263238" stroke-linecap="round" stroke-linejoin="round"/>
<path d="M218.359 210.868C218.359 210.868 188.716 315.343 244.245 423.984L218.359 210.868Z" fill="#263238" stroke="#263238" stroke-linecap="round" stroke-linejoin="round"/>
<path d="M338.587 433.243H328.812V437.377H338.587V433.243Z" fill="white" stroke="#263238" stroke-linecap="round" stroke-linejoin="round"/>
<path d="M351.163 433.243H341.388V437.377H351.163V433.243Z" fill="white" stroke="#263238" stroke-linecap="round" stroke-linejoin="round"/>
<path d="M363.724 433.243H353.949V437.377H363.724V433.243Z" fill="white" stroke="#263238" stroke-linecap="round" stroke-linejoin="round"/>
<path d="M376.285 433.243H366.51V437.377H376.285V433.243Z" fill="white" stroke="#263238" stroke-linecap="round" stroke-linejoin="round"/>
<path d="M388.846 433.243H379.071V437.377H388.846V433.243Z" fill="white" stroke="#263238" stroke-linecap="round" stroke-linejoin="round"/>
<path d="M401.423 433.243H391.648V437.377H401.423V433.243Z" fill="white" stroke="#263238" stroke-linecap="round" stroke-linejoin="round"/>
<path d="M413.984 433.243H404.209V437.377H413.984V433.243Z" fill="white" stroke="#263238" stroke-linecap="round" stroke-linejoin="round"/>
<path d="M426.545 433.243H416.77V437.377H426.545V433.243Z" fill="white" stroke="#263238" stroke-linecap="round" stroke-linejoin="round"/>
<path d="M438.93 436.418H323.224V444.263H438.93V436.418Z" fill="white" stroke="#263238" stroke-linecap="round" stroke-linejoin="round"/>
<path d="M151.67 703.737H140.207L137.979 472.119H153.899L151.67 703.737Z" fill="white" stroke="#263238" stroke-linecap="round" stroke-linejoin="round"/>
<path d="M461.569 703.737H450.106L447.877 472.119H463.797L461.569 703.737Z" fill="white" stroke="#263238" stroke-linecap="round" stroke-linejoin="round"/>
<path d="M470.436 450.944H131.611V489.867H470.436V450.944Z" fill="#263238" stroke="#263238" stroke-linecap="round" stroke-linejoin="round"/>
<path d="M469.863 460.895H131.961V472.37H469.863V460.895Z" fill="#263238"/>
<path d="M475.865 444.153H115.34V462.278H475.865V444.153Z" fill="white" stroke="#263238" stroke-linecap="round" stroke-linejoin="round"/>
<path d="M179.466 627.951C179.466 627.951 146.034 574.802 142.85 542.717C139.666 510.633 164.167 530.691 164.167 530.691C164.167 530.691 129.637 408.374 157.051 400.357C184.465 392.34 200.783 540.768 200.783 540.768C200.783 540.768 220.078 489.631 229.216 505.665C238.354 521.7 218.072 606.933 218.072 606.933C218.072 606.933 240.36 580.87 242.446 596.904C244.531 612.938 221.129 647.035 221.129 647.035" fill="#92E3A9"/>
<path d="M242.414 619.918H160.171L170.44 703.14H232.13L242.414 619.918Z" fill="#263238"/>
<path d="M224.138 630.954C224.138 630.954 242.414 602.878 241.395 583.794C240.376 564.71 226.16 596.826 226.16 596.826C226.16 596.826 238.354 532.656 224.138 520.631C209.921 508.605 206.88 578.795 206.88 578.795C206.88 578.795 175.391 441.465 158.133 471.6C140.876 501.735 181.488 576.924 181.488 576.924C181.488 576.924 168.29 551.851 166.253 575.918C164.215 599.985 174.388 631.944 174.388 631.944" stroke="#263238" stroke-miterlimit="10"/>
<path d="M714.808 703.737H723.293" stroke="#263238" stroke-linecap="round" stroke-linejoin="round"/>
<path d="M63.1546 703.737H695.704" stroke="#263238" stroke-linecap="round" stroke-linejoin="round"/>
</svg>
